<mxfile host="app.diagrams.net" modified="2023-10-26T19:58:23.706Z" agent="Mozilla/5.0 (Windows NT 10.0; Win64; x64) AppleWebKit/537.36 (KHTML, like Gecko) Chrome/118.0.0.0 Safari/537.36 Edg/118.0.2088.61" etag="gBBZuXGG6jDVLnoECMFM" version="22.0.8" type="google" pages="4">
  <diagram name="HomePage" id="TjWmorw_uu7Qhgh6EVCw">
    <mxGraphModel grid="1" page="1" gridSize="10" guides="1" tooltips="1" connect="1" arrows="1" fold="1" pageScale="1" pageWidth="850" pageHeight="1100" math="0" shadow="0">
      <root>
        <mxCell id="0" />
        <mxCell id="1" parent="0" />
        <mxCell id="oxS7X2wHkpEu8xMrkXdd-1" value="" style="strokeWidth=1;shadow=0;dashed=0;align=center;html=1;shape=mxgraph.mockup.containers.browserWindow;rSize=0;strokeColor2=#008cff;strokeColor3=#c4c4c4;mainText=,;recursiveResize=0;" vertex="1" parent="1">
          <mxGeometry x="45" y="80" width="760" height="880" as="geometry" />
        </mxCell>
        <mxCell id="oxS7X2wHkpEu8xMrkXdd-2" value="&lt;font color=&quot;#000000&quot;&gt;My portfolio&lt;/font&gt;" style="strokeWidth=1;shadow=0;dashed=0;align=center;html=1;shape=mxgraph.mockup.containers.anchor;fontSize=17;fontColor=#666666;align=left;whiteSpace=wrap;" vertex="1" parent="oxS7X2wHkpEu8xMrkXdd-1">
          <mxGeometry x="60" y="12" width="110" height="26" as="geometry" />
        </mxCell>
        <mxCell id="oxS7X2wHkpEu8xMrkXdd-3" value="&lt;font color=&quot;#000000&quot;&gt;www.myportfolio.com&lt;/font&gt;" style="strokeWidth=1;shadow=0;dashed=0;align=center;html=1;shape=mxgraph.mockup.containers.anchor;rSize=0;fontSize=17;fontColor=#666666;align=left;" vertex="1" parent="oxS7X2wHkpEu8xMrkXdd-1">
          <mxGeometry x="130" y="60" width="250" height="26" as="geometry" />
        </mxCell>
        <mxCell id="oxS7X2wHkpEu8xMrkXdd-21" value="" style="strokeWidth=1;shadow=0;dashed=0;align=center;html=1;shape=mxgraph.mockup.rrect;rSize=10;fillColor=#ffffff;strokeColor=#666666;" vertex="1" parent="oxS7X2wHkpEu8xMrkXdd-1">
          <mxGeometry x="245" y="170" width="490" height="30" as="geometry" />
        </mxCell>
        <mxCell id="oxS7X2wHkpEu8xMrkXdd-22" value="&lt;font color=&quot;#000000&quot;&gt;About me&lt;/font&gt;" style="strokeColor=inherit;fillColor=inherit;gradientColor=inherit;strokeWidth=1;shadow=0;dashed=0;align=center;html=1;shape=mxgraph.mockup.rrect;rSize=0;fontSize=17;fontColor=#666666;fontStyle=1;resizeHeight=1;whiteSpace=wrap;" vertex="1" parent="oxS7X2wHkpEu8xMrkXdd-21">
          <mxGeometry width="125" height="30" relative="1" as="geometry">
            <mxPoint x="125" as="offset" />
          </mxGeometry>
        </mxCell>
        <mxCell id="oxS7X2wHkpEu8xMrkXdd-24" value="&lt;font color=&quot;#000000&quot;&gt;Contacts&lt;/font&gt;" style="strokeColor=inherit;fillColor=inherit;gradientColor=inherit;strokeWidth=1;shadow=0;dashed=0;align=center;html=1;shape=mxgraph.mockup.rightButton;rSize=10;fontSize=17;fontColor=#666666;fontStyle=1;resizeHeight=1;whiteSpace=wrap;" vertex="1" parent="oxS7X2wHkpEu8xMrkXdd-21">
          <mxGeometry x="1" width="125" height="30" relative="1" as="geometry">
            <mxPoint x="-125" as="offset" />
          </mxGeometry>
        </mxCell>
        <mxCell id="oxS7X2wHkpEu8xMrkXdd-25" value="Home" style="strokeWidth=1;shadow=0;dashed=0;align=center;html=1;shape=mxgraph.mockup.leftButton;rSize=10;fontSize=17;fontColor=#ffffff;fontStyle=1;fillColor=#008cff;strokeColor=#008cff;resizeHeight=1;whiteSpace=wrap;" vertex="1" parent="oxS7X2wHkpEu8xMrkXdd-21">
          <mxGeometry width="125" height="30" relative="1" as="geometry" />
        </mxCell>
        <mxCell id="oxS7X2wHkpEu8xMrkXdd-23" value="&lt;font color=&quot;#000000&quot;&gt;Skills&lt;/font&gt;" style="strokeColor=inherit;fillColor=inherit;gradientColor=inherit;strokeWidth=1;shadow=0;dashed=0;align=center;html=1;shape=mxgraph.mockup.rrect;rSize=0;fontSize=17;fontColor=#666666;fontStyle=1;resizeHeight=1;whiteSpace=wrap;" vertex="1" parent="oxS7X2wHkpEu8xMrkXdd-21">
          <mxGeometry width="125" height="30" relative="1" as="geometry">
            <mxPoint x="245" as="offset" />
          </mxGeometry>
        </mxCell>
        <mxCell id="oxS7X2wHkpEu8xMrkXdd-26" value="" style="verticalLabelPosition=bottom;shadow=0;dashed=0;align=center;html=1;verticalAlign=top;strokeWidth=1;shape=mxgraph.mockup.containers.userFemale;strokeColor=#666666;strokeColor2=#008cff;" vertex="1" parent="oxS7X2wHkpEu8xMrkXdd-1">
          <mxGeometry x="490" y="352" width="220" height="230" as="geometry" />
        </mxCell>
        <mxCell id="oxS7X2wHkpEu8xMrkXdd-27" value="&lt;b style=&quot;font-size: 15px;&quot;&gt;My photo.&lt;/b&gt;&amp;nbsp;" style="text;html=1;strokeColor=none;fillColor=none;align=center;verticalAlign=middle;whiteSpace=wrap;rounded=0;fontSize=15;" vertex="1" parent="oxS7X2wHkpEu8xMrkXdd-1">
          <mxGeometry x="520" y="590" width="145" height="34" as="geometry" />
        </mxCell>
        <mxCell id="oxS7X2wHkpEu8xMrkXdd-29" value="Text" style="text;html=1;strokeColor=none;fillColor=none;align=center;verticalAlign=middle;whiteSpace=wrap;rounded=0;" vertex="1" parent="oxS7X2wHkpEu8xMrkXdd-1">
          <mxGeometry x="190" y="385" width="60" height="30" as="geometry" />
        </mxCell>
        <mxCell id="oxS7X2wHkpEu8xMrkXdd-32" value="" style="rounded=1;whiteSpace=wrap;html=1;" vertex="1" parent="oxS7X2wHkpEu8xMrkXdd-1">
          <mxGeometry x="60" y="372" width="350" height="190" as="geometry" />
        </mxCell>
        <mxCell id="oxS7X2wHkpEu8xMrkXdd-33" value="Description of myself, in a short way." style="text;html=1;strokeColor=none;fillColor=none;align=center;verticalAlign=middle;whiteSpace=wrap;rounded=0;fontSize=15;fontColor=#000000;fontStyle=1" vertex="1" parent="oxS7X2wHkpEu8xMrkXdd-1">
          <mxGeometry x="100" y="420" width="260" height="80" as="geometry" />
        </mxCell>
        <mxCell id="oxS7X2wHkpEu8xMrkXdd-34" value="&lt;b&gt;&lt;font style=&quot;font-size: 15px;&quot;&gt;Learn More&lt;/font&gt;&lt;/b&gt;" style="strokeWidth=1;shadow=0;dashed=0;align=center;html=1;shape=mxgraph.mockup.buttons.multiButton;fillColor=#008cff;strokeColor=#666666;mainText=;subText=;" vertex="1" parent="oxS7X2wHkpEu8xMrkXdd-1">
          <mxGeometry x="155" y="630" width="150" height="50" as="geometry" />
        </mxCell>
        <mxCell id="oxS7X2wHkpEu8xMrkXdd-37" value="" style="verticalLabelPosition=bottom;shadow=0;dashed=0;align=center;html=1;verticalAlign=top;strokeWidth=1;shape=mxgraph.mockup.graphics.simpleIcon;strokeColor=#999999;" vertex="1" parent="oxS7X2wHkpEu8xMrkXdd-1">
          <mxGeometry x="20" y="170" width="135" height="50" as="geometry" />
        </mxCell>
        <mxCell id="oxS7X2wHkpEu8xMrkXdd-38" value="&lt;b&gt;&lt;font style=&quot;font-size: 15px;&quot;&gt;Logo&lt;/font&gt;&lt;/b&gt;" style="text;html=1;strokeColor=none;fillColor=none;align=center;verticalAlign=middle;whiteSpace=wrap;rounded=0;" vertex="1" parent="oxS7X2wHkpEu8xMrkXdd-1">
          <mxGeometry x="52.5" y="180" width="60" height="30" as="geometry" />
        </mxCell>
      </root>
    </mxGraphModel>
  </diagram>
  <diagram id="QNfdQw_A0I5NZj4Rbpo0" name="AboutMe">
    <mxGraphModel grid="1" page="1" gridSize="10" guides="1" tooltips="1" connect="1" arrows="1" fold="1" pageScale="1" pageWidth="850" pageHeight="1100" math="0" shadow="0">
      <root>
        <mxCell id="0" />
        <mxCell id="1" parent="0" />
        <mxCell id="yBmKqq_nrR70cpdlD1yY-1" value="" style="strokeWidth=1;shadow=0;dashed=0;align=center;html=1;shape=mxgraph.mockup.containers.browserWindow;rSize=0;strokeColor=#666666;strokeColor2=#008cff;strokeColor3=#c4c4c4;mainText=,;recursiveResize=0;movable=1;resizable=1;rotatable=1;deletable=1;editable=1;locked=0;connectable=1;" vertex="1" parent="1">
          <mxGeometry x="45" y="1150" width="760" height="810" as="geometry" />
        </mxCell>
        <mxCell id="yBmKqq_nrR70cpdlD1yY-2" value="&lt;font color=&quot;#000000&quot;&gt;My portfolio&lt;/font&gt;" style="strokeWidth=1;shadow=0;dashed=0;align=center;html=1;shape=mxgraph.mockup.containers.anchor;fontSize=17;fontColor=#666666;align=left;whiteSpace=wrap;" vertex="1" parent="yBmKqq_nrR70cpdlD1yY-1">
          <mxGeometry x="60" y="12" width="110" height="26" as="geometry" />
        </mxCell>
        <mxCell id="yBmKqq_nrR70cpdlD1yY-3" value="&lt;font color=&quot;#000000&quot;&gt;www.myportfolio.com&lt;/font&gt;" style="strokeWidth=1;shadow=0;dashed=0;align=center;html=1;shape=mxgraph.mockup.containers.anchor;rSize=0;fontSize=17;fontColor=#666666;align=left;" vertex="1" parent="yBmKqq_nrR70cpdlD1yY-1">
          <mxGeometry x="130" y="60" width="250" height="26" as="geometry" />
        </mxCell>
        <mxCell id="yBmKqq_nrR70cpdlD1yY-4" value="" style="verticalLabelPosition=bottom;shadow=0;dashed=0;align=center;html=1;verticalAlign=top;strokeWidth=1;shape=mxgraph.mockup.containers.userFemale;strokeColor=#666666;strokeColor2=#008cff;" vertex="1" parent="yBmKqq_nrR70cpdlD1yY-1">
          <mxGeometry x="40" y="240" width="220" height="230" as="geometry" />
        </mxCell>
        <mxCell id="yBmKqq_nrR70cpdlD1yY-5" value="" style="verticalLabelPosition=bottom;shadow=0;dashed=0;align=center;html=1;verticalAlign=top;strokeWidth=1;shape=mxgraph.mockup.graphics.simpleIcon;strokeColor=#999999;" vertex="1" parent="yBmKqq_nrR70cpdlD1yY-1">
          <mxGeometry x="40" y="140" width="120" height="50" as="geometry" />
        </mxCell>
        <mxCell id="yBmKqq_nrR70cpdlD1yY-6" value="&lt;font style=&quot;font-size: 15px;&quot;&gt;Logo&lt;/font&gt;" style="text;html=1;strokeColor=none;fillColor=none;align=center;verticalAlign=middle;whiteSpace=wrap;rounded=0;" vertex="1" parent="yBmKqq_nrR70cpdlD1yY-1">
          <mxGeometry x="70" y="150" width="60" height="30" as="geometry" />
        </mxCell>
        <mxCell id="yBmKqq_nrR70cpdlD1yY-7" value="&lt;b&gt;&lt;font style=&quot;font-size: 14px;&quot;&gt;Share some essential background information, such as my education, work experience and any relevant qualifications.&lt;/font&gt;&lt;/b&gt;" style="rounded=1;whiteSpace=wrap;html=1;" vertex="1" parent="yBmKqq_nrR70cpdlD1yY-1">
          <mxGeometry x="420" y="240" width="250" height="130" as="geometry" />
        </mxCell>
        <mxCell id="yBmKqq_nrR70cpdlD1yY-8" value="" style="rounded=1;whiteSpace=wrap;html=1;" vertex="1" parent="yBmKqq_nrR70cpdlD1yY-1">
          <mxGeometry x="420" y="400" width="250" height="130" as="geometry" />
        </mxCell>
        <mxCell id="yBmKqq_nrR70cpdlD1yY-9" value="&lt;b&gt;&lt;font style=&quot;font-size: 14px;&quot;&gt;Share my future goals and aspirations, both personally and professionally. What do I hope to achieve in the coming years?&lt;/font&gt;&lt;/b&gt;" style="rounded=1;whiteSpace=wrap;html=1;" vertex="1" parent="yBmKqq_nrR70cpdlD1yY-1">
          <mxGeometry x="420" y="560" width="250" height="130" as="geometry" />
        </mxCell>
        <mxCell id="yBmKqq_nrR70cpdlD1yY-10" value="&lt;b style=&quot;font-size: 14px;&quot;&gt;Mention my hobbies, interests, and passions outside of work.&lt;br&gt;&lt;/b&gt;" style="text;html=1;strokeColor=none;fillColor=none;align=center;verticalAlign=middle;whiteSpace=wrap;rounded=0;" vertex="1" parent="yBmKqq_nrR70cpdlD1yY-1">
          <mxGeometry x="450" y="460" width="190" height="30" as="geometry" />
        </mxCell>
        <mxCell id="dAbM-DP5EutkkklBoa_L-1" value="" style="strokeWidth=1;shadow=0;dashed=0;align=center;html=1;shape=mxgraph.mockup.rrect;rSize=10;fillColor=#ffffff;strokeColor=#666666;" vertex="1" parent="yBmKqq_nrR70cpdlD1yY-1">
          <mxGeometry x="230" y="140" width="490" height="30" as="geometry" />
        </mxCell>
        <mxCell id="dAbM-DP5EutkkklBoa_L-2" value="&lt;font&gt;About me&lt;/font&gt;" style="strokeColor=#006EAF;fillColor=#008CFF;strokeWidth=1;shadow=0;dashed=0;align=center;html=1;shape=mxgraph.mockup.rrect;rSize=0;fontSize=17;fontColor=#FFFFFF;fontStyle=1;resizeHeight=1;whiteSpace=wrap;" vertex="1" parent="dAbM-DP5EutkkklBoa_L-1">
          <mxGeometry width="125" height="30" relative="1" as="geometry">
            <mxPoint x="125" as="offset" />
          </mxGeometry>
        </mxCell>
        <mxCell id="dAbM-DP5EutkkklBoa_L-3" value="&lt;font color=&quot;#000000&quot;&gt;Contacts&lt;/font&gt;" style="strokeColor=inherit;fillColor=inherit;gradientColor=inherit;strokeWidth=1;shadow=0;dashed=0;align=center;html=1;shape=mxgraph.mockup.rightButton;rSize=10;fontSize=17;fontColor=#666666;fontStyle=1;resizeHeight=1;whiteSpace=wrap;" vertex="1" parent="dAbM-DP5EutkkklBoa_L-1">
          <mxGeometry x="1" width="125" height="30" relative="1" as="geometry">
            <mxPoint x="-125" as="offset" />
          </mxGeometry>
        </mxCell>
        <mxCell id="dAbM-DP5EutkkklBoa_L-4" value="&lt;font color=&quot;#000000&quot;&gt;Home&lt;/font&gt;" style="strokeWidth=1;shadow=0;dashed=0;align=center;html=1;shape=mxgraph.mockup.leftButton;rSize=10;fontSize=17;fontColor=#ffffff;fontStyle=1;fillColor=#FFFFFF;strokeColor=#008cff;resizeHeight=1;whiteSpace=wrap;" vertex="1" parent="dAbM-DP5EutkkklBoa_L-1">
          <mxGeometry width="125" height="30" relative="1" as="geometry">
            <mxPoint as="offset" />
          </mxGeometry>
        </mxCell>
        <mxCell id="dAbM-DP5EutkkklBoa_L-5" value="&lt;font color=&quot;#000000&quot;&gt;Skills&lt;/font&gt;" style="strokeColor=inherit;fillColor=inherit;gradientColor=inherit;strokeWidth=1;shadow=0;dashed=0;align=center;html=1;shape=mxgraph.mockup.rrect;rSize=0;fontSize=17;fontColor=#666666;fontStyle=1;resizeHeight=1;whiteSpace=wrap;" vertex="1" parent="dAbM-DP5EutkkklBoa_L-1">
          <mxGeometry width="125" height="30" relative="1" as="geometry">
            <mxPoint x="245" as="offset" />
          </mxGeometry>
        </mxCell>
      </root>
    </mxGraphModel>
  </diagram>
  <diagram id="WQtOpXFYqmJm09HWTaQI" name="Skills">
    <mxGraphModel grid="1" page="1" gridSize="10" guides="1" tooltips="1" connect="1" arrows="1" fold="1" pageScale="1" pageWidth="850" pageHeight="1100" math="0" shadow="0">
      <root>
        <mxCell id="0" />
        <mxCell id="1" parent="0" />
        <mxCell id="hCbIE3JHXRZ4tHlxglYj-1" value="" style="strokeWidth=1;shadow=0;dashed=0;align=center;html=1;shape=mxgraph.mockup.containers.browserWindow;rSize=0;strokeColor=#666666;strokeColor2=#008cff;strokeColor3=#c4c4c4;mainText=,;recursiveResize=0;" vertex="1" parent="1">
          <mxGeometry x="35" y="2320" width="760" height="810" as="geometry" />
        </mxCell>
        <mxCell id="hCbIE3JHXRZ4tHlxglYj-2" value="&lt;font color=&quot;#000000&quot;&gt;My portfolio&lt;/font&gt;" style="strokeWidth=1;shadow=0;dashed=0;align=center;html=1;shape=mxgraph.mockup.containers.anchor;fontSize=17;fontColor=#666666;align=left;whiteSpace=wrap;" vertex="1" parent="hCbIE3JHXRZ4tHlxglYj-1">
          <mxGeometry x="60" y="12" width="110" height="26" as="geometry" />
        </mxCell>
        <mxCell id="hCbIE3JHXRZ4tHlxglYj-3" value="&lt;font color=&quot;#000000&quot;&gt;www.myportfolio.com&lt;/font&gt;" style="strokeWidth=1;shadow=0;dashed=0;align=center;html=1;shape=mxgraph.mockup.containers.anchor;rSize=0;fontSize=17;fontColor=#666666;align=left;" vertex="1" parent="hCbIE3JHXRZ4tHlxglYj-1">
          <mxGeometry x="130" y="60" width="250" height="26" as="geometry" />
        </mxCell>
        <mxCell id="hCbIE3JHXRZ4tHlxglYj-4" value="" style="verticalLabelPosition=bottom;shadow=0;dashed=0;align=center;html=1;verticalAlign=top;strokeWidth=1;shape=mxgraph.mockup.graphics.simpleIcon;strokeColor=#999999;" vertex="1" parent="hCbIE3JHXRZ4tHlxglYj-1">
          <mxGeometry x="40" y="140" width="120" height="50" as="geometry" />
        </mxCell>
        <mxCell id="hCbIE3JHXRZ4tHlxglYj-5" value="&lt;font style=&quot;font-size: 15px;&quot;&gt;Logo&lt;/font&gt;" style="text;html=1;strokeColor=none;fillColor=none;align=center;verticalAlign=middle;whiteSpace=wrap;rounded=0;" vertex="1" parent="hCbIE3JHXRZ4tHlxglYj-1">
          <mxGeometry x="70" y="150" width="60" height="30" as="geometry" />
        </mxCell>
        <mxCell id="hCbIE3JHXRZ4tHlxglYj-6" value="&lt;h5 style=&quot;box-sizing: border-box; border: 0px; margin: 0px; outline: 0px; padding: 0px; vertical-align: baseline; clear: both; color: var(--ast-global-color-2); line-height: 1.2em; background-color: rgb(255, 255, 255);&quot; class=&quot;elementor-heading-title elementor-size-default&quot;&gt;&lt;font style=&quot;font-size: 22px;&quot;&gt;What Service You Will Get From Me&lt;/font&gt;&lt;/h5&gt;" style="rounded=1;whiteSpace=wrap;html=1;" vertex="1" parent="hCbIE3JHXRZ4tHlxglYj-1">
          <mxGeometry x="115" y="360" width="495" height="200" as="geometry" />
        </mxCell>
        <mxCell id="LCgqDw6Y_SfX-zO9eWjR-1" value="" style="strokeWidth=1;shadow=0;dashed=0;align=center;html=1;shape=mxgraph.mockup.rrect;rSize=10;fillColor=#ffffff;strokeColor=#666666;" vertex="1" parent="hCbIE3JHXRZ4tHlxglYj-1">
          <mxGeometry x="235" y="140" width="490" height="30" as="geometry" />
        </mxCell>
        <mxCell id="LCgqDw6Y_SfX-zO9eWjR-2" value="&lt;font&gt;About me&lt;/font&gt;" style="strokeColor=#006EAF;fillColor=#FFFFFF;strokeWidth=1;shadow=0;dashed=0;align=center;html=1;shape=mxgraph.mockup.rrect;rSize=0;fontSize=17;fontColor=#000000;fontStyle=1;resizeHeight=1;whiteSpace=wrap;" vertex="1" parent="LCgqDw6Y_SfX-zO9eWjR-1">
          <mxGeometry width="125" height="30" relative="1" as="geometry">
            <mxPoint x="125" as="offset" />
          </mxGeometry>
        </mxCell>
        <mxCell id="LCgqDw6Y_SfX-zO9eWjR-3" value="&lt;font color=&quot;#000000&quot;&gt;Contacts&lt;/font&gt;" style="strokeColor=inherit;fillColor=inherit;gradientColor=inherit;strokeWidth=1;shadow=0;dashed=0;align=center;html=1;shape=mxgraph.mockup.rightButton;rSize=10;fontSize=17;fontColor=#666666;fontStyle=1;resizeHeight=1;whiteSpace=wrap;" vertex="1" parent="LCgqDw6Y_SfX-zO9eWjR-1">
          <mxGeometry x="1" width="125" height="30" relative="1" as="geometry">
            <mxPoint x="-125" as="offset" />
          </mxGeometry>
        </mxCell>
        <mxCell id="LCgqDw6Y_SfX-zO9eWjR-4" value="&lt;font color=&quot;#000000&quot;&gt;Home&lt;/font&gt;" style="strokeWidth=1;shadow=0;dashed=0;align=center;html=1;shape=mxgraph.mockup.leftButton;rSize=10;fontSize=17;fontColor=#ffffff;fontStyle=1;fillColor=#FFFFFF;strokeColor=#008cff;resizeHeight=1;whiteSpace=wrap;" vertex="1" parent="LCgqDw6Y_SfX-zO9eWjR-1">
          <mxGeometry width="125" height="30" relative="1" as="geometry">
            <mxPoint as="offset" />
          </mxGeometry>
        </mxCell>
        <mxCell id="LCgqDw6Y_SfX-zO9eWjR-5" value="&lt;font&gt;Skills&lt;/font&gt;" style="strokeColor=#006EAF;fillColor=#008CFF;strokeWidth=1;shadow=0;dashed=0;align=center;html=1;shape=mxgraph.mockup.rrect;rSize=0;fontSize=17;fontColor=#FFFFFF;fontStyle=1;resizeHeight=1;whiteSpace=wrap;" vertex="1" parent="LCgqDw6Y_SfX-zO9eWjR-1">
          <mxGeometry width="125" height="30" relative="1" as="geometry">
            <mxPoint x="245" as="offset" />
          </mxGeometry>
        </mxCell>
      </root>
    </mxGraphModel>
  </diagram>
  <diagram id="PsXfMKgwN22jXhnjgnF1" name="Contact">
    <mxGraphModel grid="1" page="1" gridSize="10" guides="1" tooltips="1" connect="1" arrows="1" fold="1" pageScale="1" pageWidth="850" pageHeight="1100" math="0" shadow="0">
      <root>
        <mxCell id="0" />
        <mxCell id="1" parent="0" />
        <mxCell id="yrze4JxYBK4FTDQmpMzG-1" value="" style="strokeWidth=1;shadow=0;dashed=0;align=center;html=1;shape=mxgraph.mockup.containers.browserWindow;rSize=0;strokeColor=#666666;strokeColor2=#008cff;strokeColor3=#c4c4c4;mainText=,;recursiveResize=0;" vertex="1" parent="1">
          <mxGeometry x="40" y="3420" width="760" height="810" as="geometry" />
        </mxCell>
        <mxCell id="yrze4JxYBK4FTDQmpMzG-2" value="&lt;font color=&quot;#000000&quot;&gt;My portfolio&lt;/font&gt;" style="strokeWidth=1;shadow=0;dashed=0;align=center;html=1;shape=mxgraph.mockup.containers.anchor;fontSize=17;fontColor=#666666;align=left;whiteSpace=wrap;" vertex="1" parent="yrze4JxYBK4FTDQmpMzG-1">
          <mxGeometry x="60" y="12" width="110" height="26" as="geometry" />
        </mxCell>
        <mxCell id="yrze4JxYBK4FTDQmpMzG-3" value="&lt;font color=&quot;#000000&quot;&gt;www.myportfolio.com&lt;/font&gt;" style="strokeWidth=1;shadow=0;dashed=0;align=center;html=1;shape=mxgraph.mockup.containers.anchor;rSize=0;fontSize=17;fontColor=#666666;align=left;" vertex="1" parent="yrze4JxYBK4FTDQmpMzG-1">
          <mxGeometry x="130" y="60" width="250" height="26" as="geometry" />
        </mxCell>
        <mxCell id="yrze4JxYBK4FTDQmpMzG-4" value="" style="verticalLabelPosition=bottom;shadow=0;dashed=0;align=center;html=1;verticalAlign=top;strokeWidth=1;shape=mxgraph.mockup.graphics.simpleIcon;strokeColor=#999999;" vertex="1" parent="yrze4JxYBK4FTDQmpMzG-1">
          <mxGeometry x="40" y="140" width="120" height="50" as="geometry" />
        </mxCell>
        <mxCell id="yrze4JxYBK4FTDQmpMzG-5" value="&lt;font style=&quot;font-size: 15px;&quot;&gt;Logo&lt;/font&gt;" style="text;html=1;strokeColor=none;fillColor=none;align=center;verticalAlign=middle;whiteSpace=wrap;rounded=0;" vertex="1" parent="yrze4JxYBK4FTDQmpMzG-1">
          <mxGeometry x="70" y="150" width="60" height="30" as="geometry" />
        </mxCell>
        <mxCell id="yrze4JxYBK4FTDQmpMzG-6" value="" style="rounded=0;whiteSpace=wrap;html=1;" vertex="1" parent="yrze4JxYBK4FTDQmpMzG-1">
          <mxGeometry x="80" y="305" width="150" height="70" as="geometry" />
        </mxCell>
        <mxCell id="yrze4JxYBK4FTDQmpMzG-7" value="" style="rounded=0;whiteSpace=wrap;html=1;" vertex="1" parent="yrze4JxYBK4FTDQmpMzG-1">
          <mxGeometry x="310" y="305" width="150" height="70" as="geometry" />
        </mxCell>
        <mxCell id="yrze4JxYBK4FTDQmpMzG-8" value="&lt;font style=&quot;font-size: 14px;&quot;&gt;&lt;b&gt;&lt;font style=&quot;font-size: 14px;&quot;&gt;Phone number&lt;/font&gt;&lt;/b&gt;&amp;nbsp;&lt;/font&gt;" style="text;html=1;strokeColor=none;fillColor=none;align=center;verticalAlign=middle;whiteSpace=wrap;rounded=0;" vertex="1" parent="yrze4JxYBK4FTDQmpMzG-1">
          <mxGeometry x="100" y="325" width="110" height="30" as="geometry" />
        </mxCell>
        <mxCell id="yrze4JxYBK4FTDQmpMzG-9" value="&lt;b&gt;&lt;font style=&quot;font-size: 14px;&quot;&gt;My email&lt;/font&gt;&lt;/b&gt;" style="text;html=1;strokeColor=none;fillColor=none;align=center;verticalAlign=middle;whiteSpace=wrap;rounded=0;" vertex="1" parent="yrze4JxYBK4FTDQmpMzG-1">
          <mxGeometry x="330" y="325" width="110" height="30" as="geometry" />
        </mxCell>
        <mxCell id="yrze4JxYBK4FTDQmpMzG-10" value="" style="rounded=0;whiteSpace=wrap;html=1;" vertex="1" parent="yrze4JxYBK4FTDQmpMzG-1">
          <mxGeometry x="530" y="305" width="150" height="70" as="geometry" />
        </mxCell>
        <mxCell id="yrze4JxYBK4FTDQmpMzG-11" value="&lt;b&gt;&lt;font style=&quot;font-size: 14px;&quot;&gt;Address where i live&lt;/font&gt;&lt;/b&gt;" style="text;html=1;strokeColor=none;fillColor=none;align=center;verticalAlign=middle;whiteSpace=wrap;rounded=0;" vertex="1" parent="yrze4JxYBK4FTDQmpMzG-1">
          <mxGeometry x="550" y="325" width="110" height="30" as="geometry" />
        </mxCell>
        <mxCell id="yrze4JxYBK4FTDQmpMzG-12" value="" style="rounded=1;whiteSpace=wrap;html=1;" vertex="1" parent="yrze4JxYBK4FTDQmpMzG-1">
          <mxGeometry x="65" y="430" width="320" height="310" as="geometry" />
        </mxCell>
        <mxCell id="yrze4JxYBK4FTDQmpMzG-13" value="&lt;b&gt;&lt;font style=&quot;font-size: 14px;&quot;&gt;Get in touch:&lt;/font&gt;&lt;/b&gt;" style="text;html=1;strokeColor=none;fillColor=none;align=center;verticalAlign=middle;whiteSpace=wrap;rounded=0;" vertex="1" parent="yrze4JxYBK4FTDQmpMzG-1">
          <mxGeometry x="110" y="470" width="240" height="30" as="geometry" />
        </mxCell>
        <mxCell id="yrze4JxYBK4FTDQmpMzG-14" value="&lt;b&gt;&lt;font style=&quot;font-size: 14px;&quot;&gt;Enter your name:&lt;/font&gt;&lt;/b&gt;" style="text;html=1;strokeColor=none;fillColor=none;align=center;verticalAlign=middle;whiteSpace=wrap;rounded=0;" vertex="1" parent="yrze4JxYBK4FTDQmpMzG-1">
          <mxGeometry x="80" y="520" width="160" height="30" as="geometry" />
        </mxCell>
        <mxCell id="yrze4JxYBK4FTDQmpMzG-15" value="&lt;b&gt;&lt;font style=&quot;font-size: 14px;&quot;&gt;Enter your email:&lt;/font&gt;&lt;/b&gt;" style="text;html=1;strokeColor=none;fillColor=none;align=center;verticalAlign=middle;whiteSpace=wrap;rounded=0;" vertex="1" parent="yrze4JxYBK4FTDQmpMzG-1">
          <mxGeometry x="80" y="560" width="160" height="30" as="geometry" />
        </mxCell>
        <mxCell id="yrze4JxYBK4FTDQmpMzG-16" value="&lt;span style=&quot;font-size: 14px;&quot;&gt;&lt;b&gt;&amp;nbsp;Leave your message:&lt;/b&gt;&lt;/span&gt;" style="text;html=1;strokeColor=none;fillColor=none;align=center;verticalAlign=middle;whiteSpace=wrap;rounded=0;" vertex="1" parent="yrze4JxYBK4FTDQmpMzG-1">
          <mxGeometry x="90" y="600" width="160" height="30" as="geometry" />
        </mxCell>
        <mxCell id="yrze4JxYBK4FTDQmpMzG-17" value="Submit" style="strokeWidth=1;shadow=0;dashed=0;align=center;html=1;shape=mxgraph.mockup.buttons.button;strokeColor=#666666;fontColor=#ffffff;mainText=;buttonStyle=round;fontSize=17;fontStyle=1;fillColor=#008cff;whiteSpace=wrap;" vertex="1" parent="yrze4JxYBK4FTDQmpMzG-1">
          <mxGeometry x="250" y="690" width="100" height="30" as="geometry" />
        </mxCell>
        <mxCell id="ncRtOndwcPDtAU3yjHHZ-6" value="" style="strokeWidth=1;shadow=0;dashed=0;align=center;html=1;shape=mxgraph.mockup.rrect;rSize=10;fillColor=#ffffff;strokeColor=#666666;" vertex="1" parent="yrze4JxYBK4FTDQmpMzG-1">
          <mxGeometry x="240" y="140" width="490" height="30" as="geometry" />
        </mxCell>
        <mxCell id="ncRtOndwcPDtAU3yjHHZ-7" value="&lt;font&gt;About me&lt;/font&gt;" style="strokeColor=#006EAF;fillColor=#FFFFFF;strokeWidth=1;shadow=0;dashed=0;align=center;html=1;shape=mxgraph.mockup.rrect;rSize=0;fontSize=17;fontColor=#000000;fontStyle=1;resizeHeight=1;whiteSpace=wrap;" vertex="1" parent="ncRtOndwcPDtAU3yjHHZ-6">
          <mxGeometry width="125" height="30" relative="1" as="geometry">
            <mxPoint x="125" as="offset" />
          </mxGeometry>
        </mxCell>
        <mxCell id="ncRtOndwcPDtAU3yjHHZ-8" value="&lt;font&gt;Contacts&lt;/font&gt;" style="strokeColor=#006EAF;fillColor=#008CFF;strokeWidth=1;shadow=0;dashed=0;align=center;html=1;shape=mxgraph.mockup.rightButton;rSize=10;fontSize=17;fontColor=#FFFFFF;fontStyle=1;resizeHeight=1;whiteSpace=wrap;" vertex="1" parent="ncRtOndwcPDtAU3yjHHZ-6">
          <mxGeometry x="1" width="125" height="30" relative="1" as="geometry">
            <mxPoint x="-125" as="offset" />
          </mxGeometry>
        </mxCell>
        <mxCell id="ncRtOndwcPDtAU3yjHHZ-9" value="&lt;font color=&quot;#000000&quot;&gt;Home&lt;/font&gt;" style="strokeWidth=1;shadow=0;dashed=0;align=center;html=1;shape=mxgraph.mockup.leftButton;rSize=10;fontSize=17;fontColor=#ffffff;fontStyle=1;fillColor=#FFFFFF;strokeColor=#008cff;resizeHeight=1;whiteSpace=wrap;" vertex="1" parent="ncRtOndwcPDtAU3yjHHZ-6">
          <mxGeometry width="125" height="30" relative="1" as="geometry">
            <mxPoint as="offset" />
          </mxGeometry>
        </mxCell>
        <mxCell id="ncRtOndwcPDtAU3yjHHZ-10" value="&lt;font color=&quot;#000000&quot;&gt;Skills&lt;/font&gt;" style="strokeColor=inherit;fillColor=inherit;gradientColor=inherit;strokeWidth=1;shadow=0;dashed=0;align=center;html=1;shape=mxgraph.mockup.rrect;rSize=0;fontSize=17;fontColor=#666666;fontStyle=1;resizeHeight=1;whiteSpace=wrap;" vertex="1" parent="ncRtOndwcPDtAU3yjHHZ-6">
          <mxGeometry width="125" height="30" relative="1" as="geometry">
            <mxPoint x="245" as="offset" />
          </mxGeometry>
        </mxCell>
      </root>
    </mxGraphModel>
  </diagram>
</mxfile>
